<svg xmlns="http://www.w3.org/2000/svg" xmlns:xlink="http://www.w3.org/1999/xlink" width="2659.65" height="2668.161" viewBox="0 0 2659.65 2668.161">
  <defs>
    <linearGradient id="linear-gradient" x1="0.5" x2="0.5" y2="0.969" gradientUnits="objectBoundingBox">
      <stop offset="0" stop-color="#302050"/>
      <stop offset="0.361" stop-color="#001152" stop-opacity="0.812"/>
      <stop offset="0.76" stop-color="#fd6536"/>
      <stop offset="0.88" stop-color="#11e7c4"/>
      <stop offset="1" stop-color="#0043ff"/>
    </linearGradient>
    <filter id="Intersection_21" x="645.869" y="1228.865" width="1318.5" height="1198.334" filterUnits="userSpaceOnUse">
      <feOffset dx="90" dy="65" input="SourceAlpha"/>
      <feGaussianBlur result="blur"/>
      <feFlood flood-color="#700022"/>
      <feComposite operator="in" in2="blur"/>
      <feComposite in="SourceGraphic"/>
    </filter>
    <linearGradient id="linear-gradient-2" x1="0.5" x2="0.5" y2="1" gradientUnits="objectBoundingBox">
      <stop offset="0" stop-color="#fff" stop-opacity="0.529"/>
      <stop offset="1" stop-color="#fff" stop-opacity="0"/>
      <stop offset="1" stop-color="gray"/>
    </linearGradient>
  </defs>
  <g id="Group_1" data-name="Group 1" transform="translate(-4287 2840)">
    <g id="Rectangle_4" data-name="Rectangle 4" transform="translate(4287 -2840)" stroke="#000" stroke-width="20" fill="url(#linear-gradient)">
      <rect width="2659.65" height="2668.161" stroke="none"/>
      <rect x="10" y="10" width="2639.65" height="2648.161" fill="none"/>
    </g>
    <g id="Subtraction_1" data-name="Subtraction 1" transform="translate(4843.399 -1877.203)" fill="#ff0">
      <path d="M 1483.911743164063 1065.664672851563 L 62.60296249389648 1065.664672851563 C 53.62530899047852 1043.86376953125 45.5816650390625 1021.427368164063 38.6778450012207 998.9254150390625 C 31.36604690551758 975.0944213867188 25.15484619140625 950.6124267578125 20.21664619445801 926.1592407226563 C 15.21384620666504 901.3870239257813 11.39504623413086 876.0370483398438 8.866446495056152 850.8128051757813 C 6.300846099853516 825.2239990234375 5.000046253204346 799.130615234375 5.000046253204346 773.2574462890625 C 4.999846458435059 747.0478515625 6.334446430206299 720.6177978515625 8.966646194458008 694.701416015625 C 11.56004619598389 669.16162109375 15.47684669494629 643.4972534179688 20.60804557800293 618.4210205078125 C 25.67304611206055 593.6700439453125 32.0422477722168 568.8998413085938 39.53844451904297 544.7990112304688 C 46.95084762573242 520.966796875 55.64204788208008 497.2200317382813 65.37104797363281 474.2182312011719 C 75.01024627685547 451.4286193847656 85.89444732666016 428.8346252441406 97.72144317626953 407.0636291503906 C 109.4642486572266 385.4464111328125 122.4114456176758 364.1348266601563 136.2030487060547 343.7206115722656 C 163.6872406005859 303.038818359375 195.2508392333984 264.7834167480469 230.0170440673828 230.0170288085938 C 264.783447265625 195.2506256103516 303.0388488769531 163.6870269775391 343.7202453613281 136.2032318115234 C 364.1342468261719 122.4118270874023 385.4458312988281 109.4646224975586 407.063232421875 97.72142791748047 C 428.8338317871094 85.89502716064453 451.4280395507813 75.01082611083984 474.2182312011719 65.37102508544922 C 497.2182312011719 55.64302444458008 520.9650268554688 46.95162582397461 544.798828125 39.53842544555664 C 568.9008178710938 32.04182434082031 593.6708374023438 25.67282485961914 618.4212646484375 20.60802459716797 C 643.4972534179688 15.47682476043701 669.1614379882813 11.56002426147461 694.7010498046875 8.96662425994873 C 720.6156616210938 6.334624767303467 747.0458374023438 5.000024795532227 773.2574462890625 5.000024795532227 C 799.4688720703125 5.000024795532227 825.8988647460938 6.334624767303467 851.813232421875 8.96662425994873 C 877.353271484375 11.56002426147461 903.0176391601563 15.47682476043701 928.0934448242188 20.60802459716797 C 952.8440551757813 25.67302513122559 977.6140747070313 32.04202651977539 1001.715637207031 39.53842544555664 C 1025.549194335938 46.95142364501953 1049.296020507813 55.64282608032227 1072.29638671875 65.37102508544922 C 1095.085815429688 75.01042175292969 1117.680053710938 85.89462280273438 1139.45166015625 97.72142791748047 C 1161.069213867188 109.4648284912109 1182.380615234375 122.4120254516602 1202.794189453125 136.2032318115234 C 1243.4755859375 163.6870269775391 1281.731079101563 195.2504272460938 1316.497680664063 230.0170288085938 C 1351.264892578125 264.7840270996094 1382.828247070313 303.0394287109375 1410.311645507813 343.7206115722656 C 1424.101440429688 364.1318359375 1437.048706054688 385.4434204101563 1448.79345703125 407.0636291503906 C 1460.62060546875 428.8350219726563 1471.5048828125 451.4292297363281 1481.143676757813 474.2182312011719 C 1490.871459960938 497.2176208496094 1499.562866210938 520.9644165039063 1506.976440429688 544.7990112304688 C 1514.47265625 568.9002075195313 1520.841796875 593.6702270507813 1525.906616210938 618.4210205078125 C 1531.037231445313 643.492431640625 1534.9541015625 669.1570434570313 1537.548095703125 694.701416015625 C 1540.180419921875 720.620849609375 1541.515258789063 747.051025390625 1541.515258789063 773.2574462890625 C 1541.515258789063 799.1240234375 1540.214233398438 825.2174072265625 1537.648681640625 850.8128051757813 C 1535.11962890625 876.0358276367188 1531.300903320313 901.3860473632813 1526.298217773438 926.1592407226563 C 1521.360229492188 950.6112060546875 1515.148803710938 975.0932006835938 1507.837036132813 998.9254150390625 C 1500.932250976563 1021.429260253906 1492.888671875 1043.865356445313 1483.911743164063 1065.664672851563 Z" stroke="none"/>
      <path d="M 1480.554809570313 1060.665649414063 C 1488.964477539063 1039.98291015625 1496.523681640625 1018.752014160156 1503.056884765625 997.4588012695313 C 1510.32080078125 973.7830200195313 1516.491455078125 949.4612426757813 1521.397094726563 925.1696166992188 C 1526.3671875 900.5578002929688 1530.161010742188 875.372802734375 1532.673461914063 850.314208984375 C 1535.22265625 824.8838500976563 1536.515258789063 798.9580078125 1536.515258789063 773.2574462890625 C 1536.515258789063 747.2190551757813 1535.189086914063 720.9588012695313 1532.573608398438 695.2066040039063 C 1529.996459960938 669.8284301757813 1526.105224609375 644.3312377929688 1521.008056640625 619.4234008789063 C 1515.976440429688 594.8348388671875 1509.649291992188 570.2272338867188 1502.202026367188 546.2839965820313 C 1494.837036132813 522.6058349609375 1486.20263671875 499.0146179199219 1476.538696289063 476.1658325195313 C 1466.962890625 453.5260314941406 1456.14990234375 431.0796203613281 1444.39990234375 409.4502258300781 C 1432.731689453125 387.9710388183594 1419.86865234375 366.7980346679688 1406.168701171875 346.5196228027344 C 1378.863403320313 306.1022338867188 1347.504272460938 268.0944213867188 1312.962280273438 233.5524291992188 C 1278.42041015625 199.0110321044922 1240.412841796875 167.6518249511719 1199.995239257813 140.3462219238281 C 1179.714477539063 126.6448211669922 1158.541625976563 113.7820281982422 1137.064819335938 102.1150283813477 C 1115.435424804688 90.36542510986328 1092.988891601563 79.55242156982422 1070.348876953125 69.97602844238281 C 1047.4990234375 60.31162643432617 1023.908020019531 51.67722320556641 1000.230651855469 44.31282424926758 C 976.2870483398438 36.86562347412109 951.679443359375 30.5382251739502 927.091064453125 25.50662422180176 C 902.1788330078125 20.4088249206543 876.6818237304688 16.51762390136719 851.3080444335938 13.94102478027344 C 825.5608520507813 11.32602500915527 799.3008422851563 10.00002479553223 773.2574462890625 10.00002479553223 C 747.2138671875 10.00002479553223 720.9536743164063 11.32602500915527 695.2060546875 13.94102478027344 C 669.8328247070313 16.51762390136719 644.3358764648438 20.4088249206543 619.4236450195313 25.50662422180176 C 594.83544921875 30.5382251739502 570.2276611328125 36.86542510986328 546.2838745117188 44.31282424926758 C 522.6062622070313 51.67742538452148 499.0152587890625 60.31182479858398 476.1660461425781 69.97602844238281 C 453.5248413085938 79.55282592773438 431.0782470703125 90.36582183837891 409.4498596191406 102.1150283813477 C 387.9734497070313 113.7818222045898 366.8004455566406 126.6446228027344 346.5192565917969 140.3462219238281 C 306.1016540527344 167.6520233154297 268.0940551757813 199.01123046875 233.5524444580078 233.5524291992188 C 199.0112457275391 268.0938110351563 167.6522521972656 306.1016235351563 140.3462524414063 346.5198364257813 C 126.6442489624023 366.8012390136719 113.7814483642578 387.9740295410156 102.1150436401367 409.450439453125 C 90.36524963378906 431.0790100097656 79.55224609375 453.5254211425781 69.97604370117188 476.166015625 C 60.31084442138672 499.0170288085938 51.67644500732422 522.6080322265625 44.31284713745117 546.2839965820313 C 36.86564636230469 570.226806640625 30.5384464263916 594.8344116210938 25.50664710998535 619.4234008789063 C 20.40884590148926 644.3358154296875 16.51764678955078 669.8330078125 13.94104671478271 695.2066040039063 C 11.32584667205811 720.955810546875 9.999846458435059 747.2158203125 10.0000467300415 773.2574462890625 C 10.0000467300415 798.96484375 11.29244613647461 824.8901977539063 13.84164619445801 850.314208984375 C 16.35364723205566 875.3740234375 20.14764595031738 900.5590209960938 25.11784553527832 925.1696166992188 C 30.02344703674316 949.46240234375 36.19404602050781 973.7839965820313 43.45804595947266 997.4588012695313 C 49.990478515625 1018.750366210938 57.54924011230469 1039.98046875 65.95946502685547 1060.664672851563 L 1480.554809570313 1060.665649414063 M 1487.251586914063 1070.665649414063 L 1487.252075195313 1070.664672851563 L 59.26264572143555 1070.664672851563 C 49.70724487304688 1047.749267578125 41.17364501953125 1024.1064453125 33.89784622192383 1000.392028808594 C 26.53824615478516 976.4053955078125 20.28624534606934 951.7630004882813 15.31564617156982 927.1490478515625 C 10.2800464630127 902.214599609375 6.436446189880371 876.69921875 3.891446352005005 851.3116455078125 C 1.309046268463135 825.5552368164063 4.628906390280463e-05 799.2938232421875 4.628906390280463e-05 773.2574462890625 C -0.0001537109346827492 746.87939453125 1.343046307563782 720.2794189453125 3.992246389389038 694.1962280273438 C 6.602646350860596 668.4894409179688 10.54504585266113 642.6576538085938 15.70964622497559 617.4186401367188 C 20.80764579772949 592.5062255859375 27.21844673156738 567.5736083984375 34.76404571533203 543.3140258789063 C 42.22504806518555 519.3251953125 50.97344589233398 495.4226379394531 60.76604461669922 472.2704162597656 C 70.46804809570313 449.3324279785156 81.42324829101563 426.5908203125 93.32784271240234 404.6768188476563 C 105.1470489501953 382.9192199707031 118.1784439086914 361.4688110351563 132.0600433349609 340.921630859375 C 159.7220458984375 299.9764099121094 191.4900512695313 261.4730224609375 226.4814453125 226.4814300537109 C 261.4728393554688 191.4902191162109 299.9762573242188 159.7220306396484 340.9212341308594 132.0600280761719 C 361.4688415527344 118.1784210205078 382.9190368652344 105.1472244262695 404.6764526367188 93.32782745361328 C 426.5910339355469 81.42322540283203 449.3330383300781 70.46802520751953 472.2704467773438 60.76602554321289 C 495.4210510253906 50.97422409057617 519.3236694335938 42.22582626342773 543.3138427734375 34.76402282714844 C 567.57421875 27.21822547912598 592.5068359375 20.80742454528809 617.4188232421875 15.70962429046631 C 642.6576538085938 10.54502487182617 668.4892578125 6.602624893188477 694.1958618164063 3.99222469329834 C 720.2792358398438 1.343024730682373 746.8792724609375 2.470703111612238e-05 773.2574462890625 2.470703111612238e-05 C 799.6354370117188 2.470703111612238e-05 826.2352294921875 1.343024730682373 852.3184204101563 3.99222469329834 C 878.0252685546875 6.602624893188477 903.8570556640625 10.54502487182617 929.0958251953125 15.70962429046631 C 954.0084228515625 20.80762481689453 978.9408569335938 27.21842384338379 1003.200622558594 34.76402282714844 C 1027.190795898438 42.22582626342773 1051.093505859375 50.97422409057617 1074.244262695313 60.76602554321289 C 1097.181640625 70.46802520751953 1119.923461914063 81.42322540283203 1141.838256835938 93.32782745361328 C 1163.595703125 105.1472244262695 1185.0458984375 118.1784210205078 1205.59326171875 132.0600280761719 C 1246.538452148438 159.7220306396484 1285.041870117188 191.4902191162109 1320.033203125 226.4814300537109 C 1355.024658203125 261.4728393554688 1386.792846679688 299.9760131835938 1414.454833984375 340.921630859375 C 1428.33544921875 361.4672241210938 1441.36669921875 382.9176330566406 1453.18701171875 404.6768188476563 C 1465.091674804688 426.5908203125 1476.046875 449.3324279785156 1485.748657226563 472.2704162597656 C 1495.541015625 495.4226379394531 1504.289306640625 519.3251953125 1511.750854492188 543.3140258789063 C 1519.296630859375 567.5744018554688 1525.707275390625 592.5066528320313 1530.805053710938 617.4186401367188 C 1535.969848632813 642.6567993164063 1539.911865234375 668.4886474609375 1542.5224609375 694.1962280273438 C 1545.171630859375 720.2806396484375 1546.515258789063 746.880615234375 1546.515258789063 773.2574462890625 C 1546.515258789063 799.2926025390625 1545.205688476563 825.5538330078125 1542.623657226563 851.3116455078125 C 1540.078491210938 876.6974487304688 1536.23486328125 902.2128295898438 1531.19921875 927.1490478515625 C 1526.228393554688 951.7632446289063 1519.976196289063 976.4058227539063 1512.617065429688 1000.392028808594 C 1505.33984375 1024.10986328125 1496.805786132813 1047.753051757813 1487.252075195313 1070.664672851563 L 1487.251586914063 1070.665649414063 Z" stroke="none"/>
    </g>
    <path id="Subtraction_2" data-name="Subtraction 2" d="M1300.087,935.927H51.8c-8.353-20.032-15.812-40.7-22.173-61.429-6.433-20.968-11.9-42.509-16.244-64.026-4.4-21.8-7.762-44.1-9.987-66.293C1.144,721.662,0,698.706,0,675.946a686.653,686.653,0,0,1,3.49-69.112,677.631,677.631,0,0,1,10.243-67.115c4.456-21.777,10.061-43.572,16.656-64.779,6.522-20.97,14.17-41.865,22.73-62.1,8.481-20.051,18.058-39.931,28.464-59.087,10.332-19.02,21.723-37.77,33.858-55.732A679.675,679.675,0,0,1,298.018,115.441c17.962-12.135,36.713-23.526,55.732-33.858,19.157-10.406,39.037-19.983,59.087-28.464,20.237-8.56,41.132-16.207,62.1-22.73,21.207-6.6,43-12.2,64.779-16.656A677.629,677.629,0,0,1,606.834,3.49a686.088,686.088,0,0,1,138.224,0,677.627,677.627,0,0,1,67.115,10.243c21.777,4.456,43.572,10.06,64.779,16.656,20.971,6.523,41.866,14.17,62.1,22.73,20.051,8.481,39.931,18.058,59.088,28.464,19.019,10.332,37.77,21.723,55.732,33.858a679.677,679.677,0,0,1,182.577,182.577c12.134,17.96,23.525,36.711,33.858,55.732,10.406,19.156,19.983,39.036,28.464,59.087,8.56,20.239,16.208,41.133,22.73,62.1,6.6,21.207,12.2,43,16.656,64.779a677.5,677.5,0,0,1,10.243,67.115,686.719,686.719,0,0,1,3.49,69.112c0,22.759-1.145,45.715-3.4,68.231-2.225,22.191-5.584,44.5-9.987,66.293-4.345,21.517-9.811,43.058-16.244,64.026-6.361,20.733-13.821,41.4-22.173,61.429Z" transform="translate(4942.338 -1752.093)" fill="#ffa000"/>
    <path id="Subtraction_4" data-name="Subtraction 4" d="M1080.977,778.191H43.074c-6.945-16.656-13.147-33.84-18.436-51.076-5.349-17.434-9.893-35.345-13.506-53.235-3.66-18.123-6.454-36.668-8.3-55.121C.951,600.037,0,580.95,0,562.026a570.924,570.924,0,0,1,2.9-57.464,563.436,563.436,0,0,1,8.516-55.8c3.705-18.107,8.365-36.229,13.849-53.861,5.423-17.436,11.782-34.809,18.9-51.637,7.052-16.672,15.014-33.2,23.667-49.129,8.591-15.814,18.062-31.4,28.152-46.339A565.127,565.127,0,0,1,247.791,95.985c14.935-10.089,30.525-19.561,46.339-28.152,15.928-8.653,32.458-16.615,49.129-23.667,16.827-7.117,34.2-13.476,51.637-18.9,17.633-5.484,35.755-10.144,53.862-13.849a563.43,563.43,0,0,1,55.8-8.517,570.459,570.459,0,0,1,114.928,0,563.419,563.419,0,0,1,55.8,8.517c18.107,3.705,36.229,8.365,53.862,13.849,17.437,5.423,34.81,11.782,51.636,18.9,16.672,7.052,33.2,15.014,49.129,23.667,15.814,8.591,31.4,18.062,46.339,28.152a565.13,565.13,0,0,1,151.806,151.807c10.089,14.933,19.56,30.524,28.152,46.339,8.653,15.928,16.615,32.457,23.667,49.129,7.117,16.828,13.476,34.2,18.9,51.637,5.484,17.633,10.144,35.755,13.849,53.861a563.431,563.431,0,0,1,8.517,55.8,571.074,571.074,0,0,1,2.9,57.464c0,18.923-.952,38.011-2.829,56.732-1.85,18.451-4.643,37-8.3,55.121-3.613,17.89-8.157,35.8-13.506,53.235-5.289,17.239-11.492,34.423-18.436,51.076Z" transform="translate(5054.043 -1601.803)" fill="#ff5e00"/>
    <path id="Subtraction_5" data-name="Subtraction 5" d="M840.377,604.983H33.487c-5.4-12.948-10.221-26.308-14.333-39.708C15,551.721,11.463,537.8,8.654,523.889,5.809,509.8,3.637,495.382,2.2,481.037.74,466.483,0,451.644,0,436.932a443.859,443.859,0,0,1,2.256-44.674,438.028,438.028,0,0,1,6.621-43.383C11.757,334.8,15.38,320.71,19.643,307c4.216-13.555,9.159-27.061,14.693-40.144,5.482-12.961,11.672-25.811,18.4-38.194,6.679-12.294,14.042-24.415,21.886-36.025A439.34,439.34,0,0,1,192.639,74.621c11.61-7.844,23.731-15.207,36.025-21.886,12.383-6.727,25.233-12.917,38.194-18.4C279.939,28.8,293.446,23.86,307,19.644c13.708-4.264,27.8-7.886,41.873-10.767a438.021,438.021,0,0,1,43.383-6.621,443.488,443.488,0,0,1,89.348,0,438.017,438.017,0,0,1,43.383,6.621c14.077,2.881,28.165,6.5,41.873,10.767,13.556,4.216,27.062,9.16,40.143,14.693,12.961,5.482,25.811,11.672,38.194,18.4,12.294,6.679,24.415,14.042,36.025,21.886A439.343,439.343,0,0,1,799.243,192.639c7.843,11.609,15.207,23.73,21.886,36.025,6.727,12.383,12.917,25.233,18.4,38.194C845.061,279.94,850,293.447,854.22,307c4.264,13.708,7.886,27.8,10.767,41.873a438.043,438.043,0,0,1,6.621,43.383,443.951,443.951,0,0,1,2.256,44.674c0,14.711-.74,29.55-2.2,44.1-1.438,14.344-3.61,28.762-6.455,42.852-2.809,13.908-6.342,27.833-10.5,41.386-4.112,13.4-8.934,26.762-14.333,39.708Z" transform="translate(5179.579 -1440.299)" fill="#f40"/>
    <path id="Subtraction_3" data-name="Subtraction 3" d="M654.6,442H17.118A335.5,335.5,0,0,1,0,335.857a341.241,341.241,0,0,1,1.734-34.339A335.354,335.354,0,0,1,301.518,1.734a340.884,340.884,0,0,1,68.679,0A335.355,335.355,0,0,1,669.98,301.518a341.239,341.239,0,0,1,1.734,34.339A335.5,335.5,0,0,1,654.6,442Z" transform="translate(5282.773 -1265.567)" fill="#ff1a00"/>
    <rect id="Rectangle_6" data-name="Rectangle 6" width="2659.65" height="12.766" transform="translate(4287 -816.538)"/>
    <rect id="Rectangle_7" data-name="Rectangle 7" width="2659.65" height="12.766" transform="translate(4287 -784.622)"/>
    <rect id="Rectangle_8" data-name="Rectangle 8" width="2659.65" height="12.766" transform="translate(4287 -732.493)"/>
    <rect id="Rectangle_9" data-name="Rectangle 9" width="2659.65" height="12.766" transform="translate(4287 -655.895)"/>
    <rect id="Rectangle_10" data-name="Rectangle 10" width="2659.65" height="12.766" transform="translate(4287 -554.828)"/>
    <rect id="Rectangle_11" data-name="Rectangle 11" width="2659.65" height="12.766" transform="translate(4287 -385.399)"/>
    <g transform="matrix(1, 0, 0, 1, 4287, -2840)" filter="url(#Intersection_21)">
      <path id="Intersection_21-2" data-name="Intersection 21" d="M0,1113.334V267.767H134.052v78.675h3.506a203.165,203.165,0,0,1,27.387-33.463q16.889-17.03,41.391-30.545a266.48,266.48,0,0,1,55.373-22.31q30.859-8.792,69.354-8.814,59.466,0,109.584,22.9a262.356,262.356,0,0,1,86.275,62.848Q563.04,377,582.871,431.011q19.816,54.033,19.822,116.27T583.447,664.134q-19.214,54.61-54.787,95.121t-86.267,64.591q-50.719,24.063-114.827,24.069-59.463,0-109-24.65-49.577-24.672-76.355-66.96h-2.325v357.029ZM230.816,382.86a176.713,176.713,0,0,0-51.878,42.268A180.6,180.6,0,0,0,146.3,483.864a204.591,204.591,0,0,0-11.071,65.768A199.136,199.136,0,0,0,146.3,614.8a181.792,181.792,0,0,0,32.642,58.155,168.336,168.336,0,0,0,51.878,41.669Q261.1,730.5,299.593,730.474q40.789,0,71.1-16.429a156,156,0,0,0,50.129-42.288,181.765,181.765,0,0,0,29.733-58.716,227.165,227.165,0,0,0,9.909-65.768,221.383,221.383,0,0,0-9.909-65.19,183.185,183.185,0,0,0-29.733-58.136A150.125,150.125,0,0,0,370.7,382.259q-30.318-15.848-71.1-15.846Q261.117,366.412,230.816,382.86ZM732.888,803.865a272.438,272.438,0,0,1-79.48-84.133l101.234-95.565,1.553-.58q17.5,49.34,58.291,79.275t96.753,29.952a166.192,166.192,0,0,0,59.453-10.584A143.587,143.587,0,0,0,1019.67,691.7q20.958-19.935,33.207-49.894,12.246-29.938,12.244-67.528,0-48.164-16.316-79.865-16.344-31.695-42.551-51.084a159.169,159.169,0,0,0-58.869-27.011,291.069,291.069,0,0,0-66.445-7.623A374.355,374.355,0,0,0,831.4,412.2a443.681,443.681,0,0,0-51.3,10q-24.752,6.36-48.958,14.656A346.2,346.2,0,0,0,688.6,454.471L702.59,0h469.791V126.827h-336.9l-8.152,179.7q19.816-5.885,47.209-8.242,27.388-2.3,49.542-2.342,60.592,0,112.493,17.619,51.862,17.6,90.338,51.082t60.029,82.205Q1208.515,495.614,1208.5,559q0,69.319-23.883,123.9-23.917,54.61-64.708,92.182-40.8,37.608-95.591,57.564-54.792,19.934-116.563,19.959Q803.971,852.608,732.888,803.865Z" transform="translate(655.87 1238.86)" fill="#fff" stroke="#000" stroke-width="20"/>
    </g>
    <path id="Union_1" data-name="Union 1" d="M1917.716,700.674l-20.406,6.992-4.186-12.365,20.231-7.307-12.918-17.681,10.285-8.032,13.417,17.089,11.962-17.734,11.473,7.739-11.963,17.735,20.476,6.339-3.592,12.534-20.843-5.648.458,22.009-13.2.45ZM965.561,681.524l-20.406,6.992-4.186-12.365,20.232-7.307-12.919-17.681,10.286-8.032,13.416,17.089,11.962-17.734,11.473,7.739-11.963,17.735,20.476,6.339-3.592,12.534L979.5,681.185l.458,22.009-13.2.45Zm-573.42,0-20.407,6.992-4.186-12.365,20.232-7.307-12.919-17.681,10.286-8.032,13.417,17.089,11.961-17.734L422,650.226l-11.962,17.735,20.476,6.339-3.593,12.534-20.842-5.648.458,22.009-13.2.45ZM205.965,638.969l-20.406,6.993L181.373,633.6l20.232-7.308-12.919-17.681,10.285-8.031,13.417,17.088,11.962-17.733,11.472,7.738-11.962,17.735,20.476,6.34-3.592,12.534L219.9,638.63l.458,22.009-13.2.449ZM1751.755,602.8l-20.407,6.993-4.186-12.365,20.232-7.307-12.919-17.682,10.286-8.031,13.416,17.088,11.962-17.733,11.473,7.738-11.962,17.735,20.476,6.34-3.593,12.534-20.842-5.648.458,22.008-13.2.449Zm-515.29,13.707-6.394,2.192-1.312-3.875,6.34-2.29-4.048-5.54,3.223-2.517,4.2,5.355,3.749-5.557,3.6,2.425-3.75,5.557,6.417,1.986-1.126,3.929-6.531-1.77.144,6.9-4.138.141Zm898.962-13.83-6.394,2.191-1.312-3.875,6.34-2.289-4.048-5.541,3.223-2.516,4.2,5.354,3.749-5.556,3.6,2.424-3.749,5.557,6.417,1.987-1.126,3.928-6.531-1.769.143,6.9-4.137.141Zm-1344.72,0-6.394,2.191L783,600.991l6.34-2.289-4.048-5.541,3.223-2.516,4.2,5.354,3.747-5.556,3.6,2.424-3.748,5.558,6.416,1.986-1.125,3.928-6.532-1.769.144,6.9-4.137.141Zm580.868-26.6-6.394,2.191-1.312-3.874,6.339-2.29-4.048-5.54,3.223-2.517,4.2,5.355,3.749-5.557,3.6,2.425-3.748,5.557,6.416,1.986-1.126,3.928-6.531-1.769.144,6.9-4.138.141Zm64.9-13.831-6.394,2.192-1.312-3.875,6.339-2.289-4.048-5.541,3.223-2.516,4.2,5.354,3.749-5.557,3.6,2.425L1442.078,558l6.417,1.987-1.126,3.928-6.531-1.77.143,6.9-4.137.141Zm917.048-22.341-6.4,2.192-1.312-3.875,6.341-2.29-4.048-5.54,3.223-2.517,4.2,5.355,3.748-5.557,3.6,2.425-3.749,5.557,6.416,1.986-1.125,3.929-6.531-1.77.143,6.9-4.137.141ZM459.164,517.69l-20.407,6.992-4.186-12.365L454.8,505.01l-12.919-17.681,10.286-8.032,13.417,17.089,11.961-17.734,11.473,7.738L477.06,504.126l20.476,6.339L493.943,523,473.1,517.351l.458,22.008-13.2.45Zm777.3,9.451-6.394,2.191-1.312-3.875,6.34-2.289-4.048-5.54,3.223-2.517,4.2,5.355,3.749-5.557,3.6,2.424-3.749,5.557,6.416,1.987-1.126,3.928-6.531-1.769.144,6.9-4.138.142Zm-691.509,0-6.394,2.191-1.313-3.875,6.34-2.289-4.048-5.54,3.223-2.517,4.2,5.355,3.748-5.557,3.594,2.424-3.748,5.557,6.417,1.987-1.126,3.928-6.531-1.769.143,6.9-4.137.142Zm1097.9-13.831-6.394,2.192-1.312-3.875,6.339-2.29-4.047-5.54,3.223-2.516,4.2,5.354,3.748-5.557,3.6,2.425-3.748,5.557h0l6.417,1.987-1.126,3.928-6.531-1.77.144,6.9-4.137.141Zm-1591.535,0L44.93,515.5l-1.312-3.875,6.339-2.29L45.91,503.8l3.224-2.516,4.2,5.354,3.749-5.557,3.6,2.425-3.749,5.557h0l6.417,1.987-1.126,3.928-6.531-1.77.144,6.9-4.137.141Zm790.83-22.217-20.407,6.993-4.186-12.366,20.232-7.307-12.919-17.681,10.286-8.032,13.417,17.089,11.961-17.734,11.473,7.739-11.962,17.735,20.476,6.339L876.932,496.4l-20.842-5.649.458,22.009-13.2.45Zm1094.331,11.579-6.394,2.192-1.312-3.875,6.339-2.29-4.048-5.54,3.223-2.517,4.2,5.355,3.748-5.557,3.6,2.425-3.749,5.557h0l6.417,1.987-1.126,3.928-6.531-1.77.144,6.9-4.138.141Zm468.1-47.874-6.394,2.192-1.312-3.875,6.339-2.29-4.048-5.54,3.223-2.517,4.2,5.355,3.749-5.557,3.6,2.425-3.75,5.557,6.417,1.987-1.126,3.928-6.531-1.77.144,6.9-4.138.141Zm-954.283,0-6.394,2.192-1.312-3.875,6.339-2.29-4.047-5.54,3.223-2.517,4.2,5.355,3.748-5.557,3.6,2.425-3.748,5.557h0l6.417,1.987-1.126,3.928-6.531-1.77.143,6.9-4.137.141Zm627.678-13.83-6.394,2.191-1.312-3.875,6.34-2.289-4.048-5.54,3.223-2.517,4.2,5.355,3.749-5.557,3.6,2.424-3.749,5.557L2090,438.7l-1.126,3.928-6.531-1.769.143,6.9-4.137.142ZM354.525,416.5l-6.394,2.192-1.312-3.875,6.339-2.29-4.048-5.54,3.223-2.517,4.2,5.355,3.749-5.557,3.594,2.425-3.749,5.557,6.417,1.987-1.126,3.928-6.531-1.77.144,6.9-4.138.141Zm1491.913-38.175-20.407,6.993-4.186-12.366,20.232-7.307-12.919-17.681,10.286-8.032,13.416,17.089,11.962-17.733,11.473,7.738-11.964,17.735,20.476,6.339-3.592,12.535-20.842-5.649.458,22.009-13.2.45Zm417.716-6.507-6.394,2.192-1.312-3.875,6.339-2.289-4.047-5.541,3.223-2.516,4.2,5.354,3.749-5.556,3.6,2.424-3.748,5.558,6.416,1.986-1.126,3.928-6.531-1.77.144,6.9-4.137.141Zm-661.721,0-6.394,2.192-1.312-3.875,6.339-2.289-4.048-5.541,3.223-2.516,4.2,5.354,3.749-5.556,3.6,2.424-3.748,5.558,6.416,1.986-1.126,3.928-6.531-1.77.144,6.9-4.137.141ZM1371.575,339.9l-6.394,2.192-1.312-3.875,6.339-2.29-4.048-5.54,3.223-2.517,4.2,5.355,3.749-5.557,3.6,2.425-3.749,5.557h0l6.417,1.987-1.126,3.928-6.531-1.77.144,6.9-4.138.141Zm-554.271,0-6.394,2.192-1.312-3.875,6.339-2.29-4.048-5.54,3.224-2.517,4.2,5.355,3.749-5.557,3.6,2.425-3.749,5.557h0l6.417,1.987-1.126,3.928-6.531-1.77.144,6.9-4.137.141Zm-698.956,0-6.394,2.192-1.312-3.875,6.339-2.29-4.048-5.54,3.224-2.517,4.2,5.355,3.749-5.557,3.6,2.425-3.749,5.557h0l6.417,1.987-1.126,3.928-6.531-1.77.144,6.9-4.137.141ZM7.707,315.432l-6.395,2.192L0,313.749l6.34-2.289-4.048-5.541L5.515,303.4l4.2,5.354,3.749-5.556,3.594,2.424-3.748,5.557,6.415,1.987L18.6,317.1l-6.532-1.769.144,6.9-4.137.141ZM1148.165,313.3l-6.4,2.192-1.312-3.875,6.34-2.289-4.048-5.541,3.223-2.516,4.2,5.354,3.748-5.557,3.594,2.425-3.749,5.557,6.417,1.987-1.126,3.928-6.531-1.77.143,6.9-4.137.141Zm-126.219-23.281-20.406,6.993-4.186-12.366,20.232-7.307-12.919-17.681,10.286-8.032,13.416,17.089,11.962-17.734,11.473,7.739-11.963,17.735,20.476,6.339-3.592,12.535-20.843-5.649.459,22.008-13.2.45Zm1284.079-42.555-20.406,6.993-4.186-12.365,20.232-7.307-12.919-17.682,10.285-8.031,13.417,17.088,11.962-17.733,11.473,7.738L2323.921,233.9l20.476,6.34-3.593,12.534-20.843-5.648.459,22.008-13.2.449Zm-1766.008,0-20.406,6.993L515.426,242.1l20.231-7.307-12.918-17.682,10.285-8.031,13.417,17.088L558.4,208.432l11.472,7.738-11.962,17.735,20.476,6.34L574.8,252.779l-20.843-5.648.458,22.008-13.2.449Zm1891.163,6.26-6.4,2.192-1.311-3.875,6.339-2.29-4.048-5.54,3.223-2.517,4.2,5.355,3.749-5.557,3.594,2.425-3.749,5.557,6.417,1.987-1.126,3.928-6.531-1.77.143,6.9-4.137.141Zm-379.8-26.6-6.394,2.192-1.312-3.875,6.34-2.289-4.048-5.541,3.223-2.516,4.2,5.354,3.748-5.557,3.6,2.425-3.749,5.557h0l6.417,1.987-1.126,3.928-6.531-1.77.144,6.9-4.138.141Zm-408.523,0-6.394,2.192-1.312-3.875,6.339-2.289-4.047-5.541,3.223-2.516,4.2,5.354,3.748-5.557,3.6,2.425-3.748,5.557h0l6.417,1.987-1.126,3.928-6.531-1.77.144,6.9-4.137.141Zm-1523.067-40.3-20.406,6.993L95.2,181.457l20.232-7.307-12.919-17.681,10.285-8.032,13.417,17.089,11.962-17.733,11.472,7.738-11.962,17.735,20.476,6.339-3.592,12.535-20.843-5.649.458,22.008-13.2.45Zm2086.913,13.706-6.394,2.192L2199,198.852l6.339-2.289-4.047-5.541,3.223-2.516,4.2,5.354,3.749-5.556,3.6,2.424-3.748,5.558,6.416,1.986L2217.6,202.2l-6.531-1.769.144,6.9-4.137.142Zm-770.235-12.766-6.394,2.192-1.312-3.875,6.339-2.29-4.048-5.54,3.223-2.516,4.2,5.354,3.749-5.557,3.6,2.425-3.749,5.557,6.417,1.987-1.126,3.928-6.531-1.77.143,6.9-4.137.141Zm26.6-19.149-6.395,2.192-1.312-3.875,6.34-2.29-4.048-5.54,3.223-2.516,4.2,5.354,3.748-5.557,3.594,2.425-3.749,5.557,6.416,1.987-1.125,3.928-6.532-1.77.144,6.9-4.137.141Zm-188.986-16.9-20.407,6.993-4.186-12.365,20.232-7.307L1256.8,121.361l10.285-8.031,13.417,17.088,11.962-17.733,11.472,7.738-11.962,17.735,20.476,6.34-3.593,12.534-20.843-5.648.458,22.008-13.2.449Zm501.078-13.83-20.406,6.993-4.186-12.366,20.232-7.307-12.918-17.681,10.285-8.032,13.417,17.089,11.962-17.733,11.472,7.738-11.962,17.735,20.476,6.339-3.592,12.535-20.843-5.649.458,22.008-13.2.45Zm502.825-6.507-6.4,2.192-1.311-3.875,6.339-2.289-4.048-5.541,3.223-2.516,4.2,5.354,3.749-5.557,3.594,2.425-3.749,5.557,6.417,1.987-1.126,3.928-6.531-1.77.143,6.9-4.137.141ZM346.395,94.273l-20.406,6.993L321.8,88.9l20.232-7.307L329.116,63.912,339.4,55.881l13.417,17.088L364.78,55.236l11.472,7.738L364.291,80.709l20.476,6.34-3.592,12.534-20.843-5.648.458,22.008-13.2.449ZM697.088,101.6l-6.395,2.192-1.312-3.875,6.34-2.29-4.048-5.54,3.223-2.516,4.2,5.354,3.749-5.557,3.594,2.425L702.7,97.346l6.417,1.987-1.126,3.928-6.532-1.77.144,6.9-4.137.141ZM197.073,87.767l-6.394,2.191-1.312-3.874,6.34-2.29-4.048-5.54,3.223-2.517,4.2,5.355,3.748-5.557,3.6,2.425-3.748,5.557L209.1,85.5l-1.125,3.928-6.532-1.769.144,6.9-4.137.141ZM1013.055,75l-6.4,2.192-1.312-3.875,6.34-2.289-4.048-5.541,3.223-2.516,4.2,5.354,3.749-5.556,3.594,2.424-3.748,5.557,6.416,1.987-1.126,3.928-6.532-1.77.144,6.9-4.137.141Zm1224.5-62.767-6.4,2.191-1.312-3.874,6.339-2.29-4.047-5.54L2235.366.2l4.2,5.355L2243.318,0l3.6,2.425-3.749,5.557h0l6.417,1.986-1.125,3.929-6.532-1.77.143,6.9-4.137.141Z" transform="translate(4422.294 -2755.797)" fill="url(#linear-gradient-2)"/>
  </g>
</svg>
